<?xml version="1.0" encoding="UTF-8" standalone="no"?>
<svg width="18px" height="7px" viewBox="0 0 18 7" version="1.1" xmlns="http://www.w3.org/2000/svg" xmlns:xlink="http://www.w3.org/1999/xlink">
    <!-- Generator: Sketch 41.1 (35376) - http://www.bohemiancoding.com/sketch -->
    <title>Reveal Password_Icon</title>
    <desc>Created with Sketch.</desc>
    <defs></defs>
    <g id="Welcome" stroke="none" stroke-width="1" fill="none" fill-rule="evenodd">
        <g id="Artboard" transform="translate(-284.000000, -32.000000)" fill="#656565">
            <g id="Group-2" transform="translate(284.000000, 32.000000)">
                <path d="M16.3208697,1.97643496 C16.5914125,1.78933734 16.6562074,1.42147742 16.4692938,1.15322771 C16.2826338,0.88523949 15.9135432,0.820784146 15.6475188,1.00610269 C12.3075356,3.34122931 9.1281137,3.88116664 6.202703,3.10595035 C4.40915982,2.63067216 3.07707412,1.79349428 2.29165552,1.05987611 C2.05367533,0.837157106 1.67866755,0.848443317 1.45661648,1.08546771 C1.23396509,1.32289893 1.24461796,1.69471827 1.48045936,1.91846524 C1.54747636,1.98213143 1.71013587,2.11864028 1.92053901,2.27782421 L0.985516889,3.81983688 C0.816813516,4.09803829 0.905356523,4.46091221 1.18340421,4.63085674 C1.27727563,4.6873706 1.38460453,4.71702673 1.49113826,4.71702673 C1.69467782,4.71702673 1.88568835,4.61198835 1.99537184,4.43466413 L2.90431073,2.93691054 C3.48134487,3.28133076 4.11529759,3.59133659 4.79917645,3.8488348 L4.35277533,5.34124313 C4.25863274,5.6541517 4.4347858,5.98193205 4.74700045,6.07532551 L4.90216321,6.09932347 C5.17409149,6.10040014 5.40580103,5.93029536 5.48107299,5.67902445 L5.92173869,4.21163013 C6.66938801,4.40872431 7.46142954,4.53054102 8.27906388,4.56703129 L8.27906388,6.03806363 C8.27906388,6.36446924 8.54281227,6.62821762 8.86921788,6.62821762 C9.19542526,6.62821762 9.45923971,6.36440316 9.45923971,6.03806363 L9.45923971,4.55652168 C10.2333362,4.50719923 11.0262836,4.37261609 11.8306364,4.14947215 L12.4014539,5.65472974 C12.4901689,5.88595212 12.7109236,6.03524891 12.9532618,6.03524891 L13.1442043,6.00277166 C13.4670778,5.88189 13.6210691,5.54132743 13.5052987,5.23695283 L12.9534687,3.78084172 C13.7441983,3.48068862 14.522488,3.10376817 15.2977737,2.6386638 L16.0376235,3.6262383 C16.151238,3.77663915 16.3268259,3.86305663 16.5094883,3.86305663 C16.6375611,3.86305663 16.7606949,3.82277846 16.8637967,3.74409958 C17.1242657,3.54922877 17.1775998,3.17938309 16.9825981,2.91858413 L16.2942442,1.99400166 L16.3208697,1.97643496 Z" id="Shape-Copy"></path>
            </g>
        </g>
    </g>
</svg>