<svg xmlns="http://www.w3.org/2000/svg" xmlns:xlink="http://www.w3.org/1999/xlink" version="1.1" width="683" height="615.448" enable-background="new 0 0 683 615.448" xml:space="preserve"><rect id="backgroundrect" width="100%" height="100%" x="0" y="0" fill="none" stroke="none"/>

<g class="currentLayer"><title>Layer 1</title><g id="svg_1" class="selected" fill="#ebff00" fill-opacity="1">
	<g id="svg_2" fill="#ebff00" fill-opacity="1">
		<path fill="#ebff00" d="M678.415,233.24l-116.972-14.793l73.009-94.062l-1.394-1.018l-73.43,94.783l-1.297-0.224l-37.211-6.209    l-0.175-1.601l-7.185-68.078l80.756-31.349l-0.554-1.623l-80.388,31.227l-0.47-90.629L433.7,81.345l-39.98-64.574l-1.457,0.882    l39.969,64.234l-70.554,25.889l-0.465-2.467L345.031,9.591l-1.689,0.312l16.384,96.846l-101.874-91l-25.655,102.809L170.314,59.64    l-1.117,1.308l57.727,55.368L123.209,94.528l48.758,100.336l-91.674-69.801l-1.009,1.396l91.606,69.741L24.873,179.64    l-0.167,1.709l146.862,16.641L87.36,256.914h0.001L2.753,316.122l94.234,24.713l-78.608,30.051l0.617,1.615l79.434-30.372    L64.649,442.2l1.641,0.52l33.71-99.86l46.714,85.667l-56.842,53.166l1.171,1.25l55.937-52.309l2.08,75.982l1.722-0.049    l-2.106-76.917l66.658,6.345l2.85,91.989l-0.209,0.349l0.224,0.138l0.09,2.893l3.699-2.285l1.177,1.001l51.203,43.79l1.117-1.3    l-51.958-44.443l120.42-74.262l1.466,8.889l51.733-115.912l-88.334-47.7l63.32-60.774l25.438,110.305l26.271,113.008    l35.46-125.442l39.012,124.137l1.629-0.553l-15.225-53.625l20.751-51.12l65.55,29.299l-6.275-9.547l45.66-61.905l35.085,55.771    l1.513-0.802l-35.469-56.501L678.415,233.24z M558.658,219.719l-36.614,90.084l-38.239-58.227l36.832-38.204L558.658,219.719z     M519.428,212.147l-36.323,37.662l-31.113-86.641l60.1-20.557L519.428,212.147z M481.569,250.396l-107.371-13.524l76.369-72.722    L481.569,250.396z M511.621,52.046l0.284,88.82L451.594,161.5l-13.508-72.863l-3.484-5.794L511.621,52.046z M433.146,83.383    l3.286,5.711l13.352,71.85l-86.787-51.825L433.146,83.383z M258.757,18.731l100.069,89.506l-124.664,9.165L258.757,18.731z     M359.217,109.927l-52.58,72.193l-73.76-62.978L359.217,109.927z M252.583,256.339l-76.495-58.438l123.888-19.205l5.644,4.821    L252.583,256.339z M253.295,359.043l-62.173-15.41l61.434-84.344L253.295,359.043z M232.283,120.898l1.725,1.466l64.247,54.864    L175.92,196.189L232.283,120.898z M126.024,96.752l105.683,22.042l-57.517,76.903L126.024,96.752z M171.594,200.081    l-31.715,61.278l-51.378-3.136L171.594,200.081z M6.786,315.397l80.65-56.431l11.325,80.558L6.786,315.397z M89.312,259.984    l49.702,3.045l-38.746,74.869L89.312,259.984z M174.232,198.64l2.012,1.543l75.332,57.53l-1.217,1.679l-60.586,83.185    l-48.264-80.945l-2.044-0.122l48.802,81.736l-87.092-3.369L174.232,198.64z M147.939,427.846l-46.671-86.237l87.761,3.396    l25.961,89.224L147.939,427.846z M190.833,345.326l62.465,15.493l0.028,2.035l-0.246,0.725l-36.54,69.832L190.833,345.326z     M256.149,361.417l62.151,1.421l-47.317,78.051l-53.022-6.472L256.149,361.417z M254.284,259.779l52.336,39.974l0.119,0.484    l14.706,60.731l0.001-0.006l21.486,88.71l-70.078-8.557l48.46-79.932l-66.302-1.516L254.284,259.779z M217.056,436.033    l52.952,6.471l-50.19,82.792L217.056,436.033z M220.017,528.282l51.861-85.551l72.488,8.85L220.017,528.282z M394.091,348.341    l-48.058,108.5l-1.602-8.269l-35.74-147.549L394.091,348.341z M307.338,298.171l-53.39-40.79l52.983-72.744l63.168,53.94    L307.338,298.171z M370.151,236.36l-62.205-53.113l53.295-73.172l1.662,0.998l86.856,51.863l-77.595,73.682L370.151,236.36z     M423.838,452.195l-23.262-104.346l56.93-13.065L423.838,452.195z M483.34,403.83l-22.249-68.587l42.833,19.144L483.34,403.83z     M504.571,352.793l-44.25-19.78l22.114-81.047l-1.643-0.487l-22.703,81.407l-57.917,13.292l-26.105-107.586l108.193,13.624    l39.018,59.476L504.571,352.793z M560.434,377.761l-54.313-24.276l16.272-40.09l40.262,61.358l4.185,5.625L560.434,377.761z     M563.736,373.292l-40.58-61.795l0.423-1.033l37.064-91.301l48.866,92.074L563.736,373.292z M563.296,220.488l112.082,13.983    l-64.737,75.235L563.296,220.488z" id="svg_3" fill-opacity="1"/>
		<polygon fill="#ebff00" points="25.098,178.144 23.725,179.184 84.882,256.328 15.009,233.008 14.506,234.651 89.459,259.522       " id="svg_4" fill-opacity="1"/>
	</g>
	<path fill="#ebff00" d="M506.911,464.015l66.933-78.471l60.315,0.84l46.069-47.286L683,208.621l-46.507-88.519l-41.686-13.742   l-0.373-0.277L485.221,24.564L309.143,0.055L308.115,0c-3.167,0.008-31.744,6.66-102.198,25.305l-0.709,0.186l-75.637,62.456   l-46.996,27.708l-63.321,61.22L0,315.231l13.416,59.095L99.252,495.04l114.626,38.448l3.508,49.632l37.796,32.329l97.853-153.192   L506.911,464.015z M253.685,605.409l-29.841-25.543l-3.625-51.274l-116.796-39.177l-0.534-0.747L19.627,371.544l-0.127-0.547   L6.769,314.943l18.78-134.886l0.701-0.678l60.054-58.186l46.699-27.498l75.332-62.135l1.205-0.312   c42.719-11.294,90.102-23.325,97.998-24.464l0.803-0.111l0.392,0.055l173.867,24.202l1.167,0.866l107.14,79.973l40.978,13.858   l44.413,84.575l-0.024,1.458l-2.652,124.672l-0.783,0.802l-41.453,42.546l-60.578-0.846l-66.936,78.493l-154.454-1.792   L253.685,605.409z" id="svg_5" fill-opacity="1"/>
</g></g></svg>